<?xml version="1.0" encoding="utf-8"?>
<!-- Generator: Adobe Illustrator 19.1.0, SVG Export Plug-In . SVG Version: 6.00 Build 0)  -->
<svg version="1.1" id="Layer_1" xmlns="http://www.w3.org/2000/svg" xmlns:xlink="http://www.w3.org/1999/xlink" x="0px" y="0px"
	 viewBox="0 0 20 20" style="enable-background:new 0 0 20 20;" xml:space="preserve">
<style type="text/css">
	.st0{fill:#2678DF;}
</style>
<g>
	<path class="st0" d="M2.6,5.3C0.9,5.3,0,4,0,2.7C0,1.3,0.9,0,2.6,0s2.6,1.3,2.6,2.7c0,0.7-0.2,1.3-0.6,1.8C4,5,3.4,5.3,2.6,5.3z
		 M2.6,1C2.1,1,1.7,1.2,1.4,1.5C1.1,1.8,1,2.2,1,2.7c0,0.8,0.5,1.7,1.6,1.7c0.5,0,0.9-0.2,1.2-0.5C4,3.5,4.2,3.1,4.2,2.7
		C4.2,1.8,3.7,1,2.6,1z"/>
</g>
<g>
	<path class="st0" d="M17.4,5.3c-1.7,0-2.6-1.3-2.6-2.7c0-0.7,0.2-1.3,0.6-1.8C16,0.3,16.6,0,17.4,0C19.1,0,20,1.3,20,2.7
		c0,0.7-0.2,1.3-0.6,1.8C18.9,5,18.2,5.3,17.4,5.3z M17.4,1c-0.5,0-0.9,0.2-1.2,0.5c-0.3,0.3-0.4,0.7-0.4,1.2c0,0.8,0.5,1.7,1.6,1.7
		c0.5,0,0.9-0.2,1.2-0.5C18.9,3.5,19,3.1,19,2.7C19,1.8,18.5,1,17.4,1z"/>
</g>
<g>
	<path class="st0" d="M10,20c-5.2,0-9.5-4.3-9.5-9.7V9.8h19v0.5C19.5,15.7,15.2,20,10,20z M1.5,10.8c0.3,4.5,4,8.2,8.5,8.2
		s8.2-3.6,8.5-8.2H1.5z"/>
</g>
</svg>
